<svg width="24" height="24" viewBox="0 0 24 24" fill="none" xmlns="http://www.w3.org/2000/svg">
<g clip-path="url(#clip0_5349_148427)">
<path d="M19.9944 11.9863C19.9944 12.4785 19.5778 12.8641 19.1056 12.8641H18.2167L18.2361 17.2445C18.2417 18.2152 17.4444 19.0027 16.4583 19.0027H7.55833C6.57778 19.0027 5.78056 18.218 5.78056 17.2527V12.8641H4.88889C4.38889 12.8641 4 12.4812 4 11.9863C4 11.7402 4.08333 11.5215 4.27778 11.3301L11.4 5.21875C11.5944 5.02734 11.8167 5 12.0111 5C12.2056 5 12.4278 5.05469 12.5944 5.19141L19.6889 11.3301C19.9111 11.5215 20.0222 11.7402 19.9944 11.9863ZM13.7778 11.125C13.7778 10.6609 13.5905 10.2158 13.2571 9.88756C12.9237 9.55937 12.4715 9.375 12 9.375C11.5285 9.375 11.0763 9.55937 10.7429 9.88756C10.4095 10.2158 10.2222 10.6609 10.2222 11.125C10.2222 11.5891 10.4095 12.0342 10.7429 12.3624C11.0763 12.6906 11.5285 12.875 12 12.875C12.4715 12.875 12.9237 12.6906 13.2571 12.3624C13.5905 12.0342 13.7778 11.5891 13.7778 11.125ZM11.1111 13.75C9.88333 13.75 8.88889 14.7289 8.88889 15.9375C8.88889 16.1781 9.08889 16.375 9.33333 16.375H14.6667C14.9111 16.375 15.1111 16.1781 15.1111 15.9375C15.1111 14.7289 14.1167 13.75 12.8889 13.75H11.1111Z" fill="#053662"/>
</g>
<defs>
<clipPath id="clip0_5349_148427">
<rect width="16" height="14" fill="white" transform="translate(4 5)"/>
</clipPath>
</defs>
</svg>
