<svg width="20" height="20" viewBox="0 0 20 20" fill="none" xmlns="http://www.w3.org/2000/svg">
<g clip-path="url(#clip0_3972_157000)">
<path d="M5.25 0C3.87109 0 2.75 1.12109 2.75 2.5V17.5C2.75 18.8789 3.87109 20 5.25 20H15.25C16.6289 20 17.75 18.8789 17.75 17.5V6.25H12.75C12.0586 6.25 11.5 5.69141 11.5 5V0H5.25ZM12.75 0V5H17.75L12.75 0ZM7.125 10H13.375C13.7188 10 14 10.2812 14 10.625C14 10.9688 13.7188 11.25 13.375 11.25H7.125C6.78125 11.25 6.5 10.9688 6.5 10.625C6.5 10.2812 6.78125 10 7.125 10ZM7.125 12.5H13.375C13.7188 12.5 14 12.7812 14 13.125C14 13.4688 13.7188 13.75 13.375 13.75H7.125C6.78125 13.75 6.5 13.4688 6.5 13.125C6.5 12.7812 6.78125 12.5 7.125 12.5ZM7.125 15H13.375C13.7188 15 14 15.2812 14 15.625C14 15.9688 13.7188 16.25 13.375 16.25H7.125C6.78125 16.25 6.5 15.9688 6.5 15.625C6.5 15.2812 6.78125 15 7.125 15Z" fill="#2D2D2D"/>
</g>
<defs>
<clipPath id="clip0_3972_157000">
<rect width="15" height="20" fill="white" transform="translate(2.75)"/>
</clipPath>
</defs>
</svg>
