<svg width="20" height="20" viewBox="0 0 20 20" fill="none" xmlns="http://www.w3.org/2000/svg">
<g clip-path="url(#clip0_4154_23295)">
<path d="M0 2.5C0 1.12109 0.996528 0 2.22222 0H7.77778V5C7.77778 5.69141 8.27431 6.25 8.88889 6.25H13.3333V7.75781C10.7674 8.57422 8.88889 11.2266 8.88889 14.375C8.88889 16.6836 9.89931 18.7227 11.4479 19.9727C11.3368 19.9922 11.2257 20 11.1111 20H2.22222C0.996528 20 0 18.8789 0 17.5V2.5ZM13.3333 5H8.88889V0L13.3333 5ZM15 8.75C16.3261 8.75 17.5979 9.34263 18.5355 10.3975C19.4732 11.4524 20 12.8832 20 14.375C20 15.8668 19.4732 17.2976 18.5355 18.3525C17.5979 19.4074 16.3261 20 15 20C13.6739 20 12.4021 19.4074 11.4645 18.3525C10.5268 17.2976 10 15.8668 10 14.375C10 12.8832 10.5268 11.4524 11.4645 10.3975C12.4021 9.34263 13.6739 8.75 15 8.75ZM17.059 12.9414C17.2743 12.6992 17.2743 12.3008 17.059 12.0586C16.8438 11.8164 16.4896 11.8164 16.2743 12.0586L15 13.4922L13.7257 12.0586C13.5104 11.8164 13.1563 11.8164 12.941 12.0586C12.7257 12.3008 12.7257 12.6992 12.941 12.9414L14.2153 14.375L12.941 15.8086C12.7257 16.0508 12.7257 16.4492 12.941 16.6914C13.1563 16.9336 13.5104 16.9336 13.7257 16.6914L15 15.2578L16.2743 16.6914C16.4896 16.9336 16.8438 16.9336 17.059 16.6914C17.2743 16.4492 17.2743 16.0508 17.059 15.8086L15.7847 14.375L17.059 12.9414Z" fill="#2D2D2D"/>
</g>
<defs>
<clipPath id="clip0_4154_23295">
<rect width="20" height="20" fill="white"/>
</clipPath>
</defs>
</svg>
