<svg width="20" height="18" viewBox="0 0 20 18" fill="none" xmlns="http://www.w3.org/2000/svg">
<path d="M10 0.25C10.5547 0.25 11.0664 0.542969 11.3477 1.02344L19.7852 15.3984C20.0703 15.8828 20.0703 16.4805 19.793 16.9648C19.5156 17.4492 18.9961 17.75 18.4375 17.75H1.56252C1.00393 17.75 0.484398 17.4492 0.207054 16.9648C-0.0702894 16.4805 -0.0663832 15.8789 0.214867 15.3984L8.65237 1.02344C8.93362 0.542969 9.44534 0.25 10 0.25ZM10 5.25C9.48049 5.25 9.06252 5.66797 9.06252 6.1875V10.5625C9.06252 11.082 9.48049 11.5 10 11.5C10.5196 11.5 10.9375 11.082 10.9375 10.5625V6.1875C10.9375 5.66797 10.5196 5.25 10 5.25ZM11.25 14C11.25 13.6685 11.1183 13.3505 10.8839 13.1161C10.6495 12.8817 10.3315 12.75 10 12.75C9.6685 12.75 9.35056 12.8817 9.11614 13.1161C8.88172 13.3505 8.75002 13.6685 8.75002 14C8.75002 14.3315 8.88172 14.6495 9.11614 14.8839C9.35056 15.1183 9.6685 15.25 10 15.25C10.3315 15.25 10.6495 15.1183 10.8839 14.8839C11.1183 14.6495 11.25 14.3315 11.25 14Z" fill="#F8BB47"/>
</svg>
