<svg width="20" height="20" viewBox="0 0 20 20" fill="none" xmlns="http://www.w3.org/2000/svg">
<path d="M19.3726 6.50781C19.4976 6.84766 19.3921 7.22656 19.1226 7.46875L17.4312 9.00781C17.4741 9.33203 17.4976 9.66406 17.4976 10C17.4976 10.3359 17.4741 10.668 17.4312 10.9922L19.1226 12.5312C19.3921 12.7734 19.4976 13.1523 19.3726 13.4922C19.2007 13.957 18.9937 14.4023 18.7554 14.832L18.5718 15.1484C18.314 15.5781 18.0249 15.9844 17.7085 16.3672C17.478 16.6484 17.0952 16.7422 16.7515 16.6328L14.5757 15.9414C14.0523 16.3438 13.4741 16.6797 12.8569 16.9336L12.3687 19.1641C12.2905 19.5195 12.0171 19.8008 11.6577 19.8594C11.1187 19.9492 10.564 19.9961 9.99757 19.9961C9.43116 19.9961 8.87647 19.9492 8.33741 19.8594C7.97804 19.8008 7.7046 19.5195 7.62647 19.1641L7.13819 16.9336C6.52101 16.6797 5.94288 16.3438 5.41944 15.9414L3.24757 16.6367C2.90382 16.7461 2.52101 16.6484 2.29054 16.3711C1.97413 15.9883 1.68507 15.582 1.42726 15.1523L1.24366 14.8359C1.00538 14.4062 0.79835 13.9609 0.626475 13.4961C0.501475 13.1562 0.606944 12.7773 0.876475 12.5352L2.56788 10.9961C2.52491 10.668 2.50147 10.3359 2.50147 10C2.50147 9.66406 2.52491 9.33203 2.56788 9.00781L0.876475 7.46875C0.606944 7.22656 0.501475 6.84766 0.626475 6.50781C0.79835 6.04297 1.00538 5.59766 1.24366 5.16797L1.42726 4.85156C1.68507 4.42188 1.97413 4.01562 2.29054 3.63281C2.52101 3.35156 2.90382 3.25781 3.24757 3.36719L5.42335 4.05859C5.94679 3.65625 6.52491 3.32031 7.1421 3.06641L7.63038 0.835938C7.70851 0.480469 7.98194 0.199219 8.34132 0.140625C8.88038 0.046875 9.43507 0 10.0015 0C10.5679 0 11.1226 0.046875 11.6616 0.136719C12.021 0.195312 12.2944 0.476562 12.3726 0.832031L12.8609 3.0625C13.478 3.31641 14.0562 3.65234 14.5796 4.05469L16.7554 3.36328C17.0991 3.25391 17.4819 3.35156 17.7124 3.62891C18.0288 4.01172 18.3179 4.41797 18.5757 4.84766L18.7593 5.16406C18.9976 5.59375 19.2046 6.03906 19.3765 6.50391L19.3726 6.50781ZM10.0015 13.125C10.8303 13.125 11.6251 12.7958 12.2112 12.2097C12.7972 11.6237 13.1265 10.8288 13.1265 10C13.1265 9.1712 12.7972 8.37634 12.2112 7.79029C11.6251 7.20424 10.8303 6.875 10.0015 6.875C9.17267 6.875 8.37782 7.20424 7.79177 7.79029C7.20571 8.37634 6.87647 9.1712 6.87647 10C6.87647 10.8288 7.20571 11.6237 7.79177 12.2097C8.37782 12.7958 9.17267 13.125 10.0015 13.125Z" fill="white"/>
</svg>
