<svg width="20" height="20" viewBox="0 0 20 20" fill="none" xmlns="http://www.w3.org/2000/svg">
<path d="M0 2.5C0 1.12109 0.996528 0 2.22222 0H7.77778V5C7.77778 5.69141 8.27431 6.25 8.88889 6.25H13.3333V11.25H7.5C7.03819 11.25 6.66667 11.668 6.66667 12.1875C6.66667 12.707 7.03819 13.125 7.5 13.125H13.3333V17.5C13.3333 18.8789 12.3368 20 11.1111 20H2.22222C0.996528 20 0 18.8789 0 17.5V2.5ZM13.3333 13.125V11.25H17.1563L15.8021 9.72656C15.4757 9.35938 15.4757 8.76562 15.8021 8.40234C16.1285 8.03906 16.6562 8.03516 16.9792 8.40234L19.7569 11.5273C20.0833 11.8945 20.0833 12.4883 19.7569 12.8516L16.9792 15.9766C16.6528 16.3438 16.125 16.3438 15.8021 15.9766C15.4792 15.6094 15.4757 15.0156 15.8021 14.6523L17.1563 13.1289H13.3333V13.125ZM13.3333 5H8.88889V0L13.3333 5Z" fill="white"/>
</svg>
