<svg width="20" height="18" viewBox="0 0 20 18" fill="none" xmlns="http://www.w3.org/2000/svg">
<path d="M9.99913 2.125C7.73524 2.125 5.87413 3.28125 4.44705 4.76953C3.11024 6.16797 2.18663 7.82812 1.71441 9C2.18663 10.1719 3.11024 11.832 4.44358 13.2305C5.87413 14.7187 7.73524 15.875 9.99913 15.875C12.263 15.875 14.1241 14.7187 15.5512 13.2305C16.888 11.832 17.8116 10.1719 18.2839 9C17.8116 7.82812 16.888 6.16797 15.5547 4.76953C14.1241 3.28125 12.263 2.125 9.99913 2.125ZM3.31163 3.39844C4.94705 1.6875 7.19358 0.25 9.99913 0.25C12.8047 0.25 15.0512 1.6875 16.6866 3.39844C18.3116 5.09766 19.3984 7.125 19.9158 8.51953C20.0304 8.82812 20.0304 9.17187 19.9158 9.48047C19.3984 10.875 18.3116 12.9062 16.6866 14.6016C15.0512 16.3125 12.8047 17.75 9.99913 17.75C7.19358 17.75 4.94705 16.3125 3.31163 14.6016C1.68663 12.9062 0.599826 10.875 0.0859375 9.48047C-0.0286458 9.17187 -0.0286458 8.82812 0.0859375 8.51953C0.599826 7.125 1.68663 5.09375 3.31163 3.39844ZM9.99913 12.125C11.5339 12.125 12.7769 10.7266 12.7769 9C12.7769 7.27344 11.5339 5.875 9.99913 5.875C9.97483 5.875 9.95399 5.875 9.92969 5.875C9.97483 6.07422 9.99913 6.28516 9.99913 6.5C9.99913 7.87891 9.0026 9 7.77691 9C7.58594 9 7.39844 8.97266 7.22135 8.92188C7.22135 8.94922 7.22135 8.97266 7.22135 9C7.22135 10.7266 8.46441 12.125 9.99913 12.125ZM9.99913 4C11.1779 4 12.3083 4.52678 13.1418 5.46447C13.9753 6.40215 14.4436 7.67392 14.4436 9C14.4436 10.3261 13.9753 11.5979 13.1418 12.5355C12.3083 13.4732 11.1779 14 9.99913 14C8.82039 14 7.68993 13.4732 6.85644 12.5355C6.02294 11.5979 5.55469 10.3261 5.55469 9C5.55469 7.67392 6.02294 6.40215 6.85644 5.46447C7.68993 4.52678 8.82039 4 9.99913 4Z" fill="white"/>
</svg>
