<svg width="20" height="20" viewBox="0 0 20 20" fill="none" xmlns="http://www.w3.org/2000/svg">
<path d="M11.25 4.26855V13.749C11.25 14.4404 10.6914 14.999 10 14.999C9.30859 14.999 8.75 14.4404 8.75 13.749V4.26855L5.88281 7.13574C5.39453 7.62402 4.60156 7.62402 4.11328 7.13574C3.625 6.64746 3.625 5.85449 4.11328 5.36621L9.11328 0.366211C9.60156 -0.12207 10.3945 -0.12207 10.8828 0.366211L15.8828 5.36621C16.3711 5.85449 16.3711 6.64746 15.8828 7.13574C15.3945 7.62402 14.6016 7.62402 14.1133 7.13574L11.25 4.26855ZM2.5 13.749H7.5C7.5 15.1279 8.62109 16.249 10 16.249C11.3789 16.249 12.5 15.1279 12.5 13.749H17.5C18.8789 13.749 20 14.8701 20 16.249V17.499C20 18.8779 18.8789 19.999 17.5 19.999H2.5C1.12109 19.999 0 18.8779 0 17.499V16.249C0 14.8701 1.12109 13.749 2.5 13.749ZM16.875 17.8115C17.1236 17.8115 17.3621 17.7128 17.5379 17.5369C17.7137 17.3611 17.8125 17.1227 17.8125 16.874C17.8125 16.6254 17.7137 16.3869 17.5379 16.2111C17.3621 16.0353 17.1236 15.9365 16.875 15.9365C16.6264 15.9365 16.3879 16.0353 16.2121 16.2111C16.0363 16.3869 15.9375 16.6254 15.9375 16.874C15.9375 17.1227 16.0363 17.3611 16.2121 17.5369C16.3879 17.7128 16.6264 17.8115 16.875 17.8115Z" fill="white"/>
</svg>
