<svg width="20" height="20" viewBox="0 0 20 20" fill="none" xmlns="http://www.w3.org/2000/svg">
<path d="M7.18013 2C8.2683 2 9.31189 2.42151 10.0813 3.1718C10.8508 3.92209 11.2831 4.93971 11.2831 6.00078C11.2831 7.06185 10.8508 8.07946 10.0813 8.82975C9.31189 9.58005 8.2683 10.0016 7.18013 10.0016C6.09197 10.0016 5.04837 9.58005 4.27892 8.82975C3.50947 8.07946 3.0772 7.06185 3.0772 6.00078C3.0772 4.93971 3.50947 3.92209 4.27892 3.1718C5.04837 2.42151 6.09197 2 7.18013 2ZM5.71526 11.5018H8.64501C9.02324 11.5018 9.39507 11.5394 9.75087 11.605C9.68356 12.1832 9.98807 12.7177 10.4497 13.0053C9.91755 13.3366 9.59381 13.993 9.80857 14.6712C9.93679 15.0744 10.1099 15.4682 10.3343 15.8464C10.5586 16.2246 10.8215 16.5685 11.1164 16.8779C11.6196 17.4061 12.3857 17.453 12.9499 17.1498V17.1779C12.9499 17.4655 13.0364 17.7562 13.2031 18H0.952008C0.42632 18.0031 0 17.5874 0 17.0748C0 13.9961 2.55792 11.5018 5.71526 11.5018ZM13.9756 8.82008C13.9756 8.60128 14.1199 8.40437 14.3378 8.35748C14.6744 8.28247 15.027 8.24184 15.386 8.24184C15.745 8.24184 16.0976 8.28247 16.4342 8.35748C16.6521 8.40437 16.7964 8.60128 16.7964 8.82008V9.37331C16.7964 9.6171 16.9502 9.8359 17.1682 9.9578C17.3862 10.0797 17.6522 10.0984 17.867 9.97655L18.3093 9.72963C18.5049 9.62023 18.7485 9.64524 18.9023 9.80464C19.1459 10.0578 19.3607 10.3422 19.5466 10.6548C19.7325 10.9674 19.8768 11.2924 19.9794 11.6237C20.0467 11.8332 19.9441 12.052 19.7486 12.1613L19.287 12.4208C19.0786 12.5364 18.9664 12.7615 18.9664 12.9959C18.9664 13.2303 19.0786 13.4554 19.287 13.571L19.7486 13.8304C19.9441 13.9398 20.0435 14.1586 19.9794 14.368C19.8736 14.6993 19.7293 15.0244 19.5466 15.337C19.3639 15.6495 19.1459 15.934 18.9023 16.1871C18.7485 16.3465 18.5017 16.3715 18.3093 16.2621L17.867 16.0152C17.6522 15.8933 17.383 15.9121 17.1682 16.034C16.9502 16.1559 16.7964 16.3747 16.7964 16.6185V17.1717C16.7964 17.3905 16.6521 17.5874 16.4342 17.6343C16.0976 17.7093 15.745 17.7499 15.386 17.7499C15.027 17.7499 14.6744 17.7093 14.3378 17.6343C14.1199 17.5874 13.9756 17.3905 13.9756 17.1717V16.6216C13.9756 16.3747 13.8185 16.1559 13.6006 16.0309C13.3826 15.909 13.1134 15.8902 12.8954 16.0121L12.4627 16.2559C12.2671 16.3653 12.0235 16.3403 11.8697 16.1809C11.626 15.9277 11.4113 15.6433 11.2254 15.3307C11.0395 15.0182 10.8952 14.6931 10.7926 14.3618C10.7253 14.1524 10.8279 13.9336 11.0234 13.8242L11.4722 13.571C11.6805 13.4522 11.7959 13.2241 11.7959 12.9896C11.7959 12.7552 11.6837 12.527 11.4722 12.4083L11.0234 12.1551C10.8279 12.0457 10.7285 11.8269 10.7926 11.6175C10.8984 11.2862 11.0395 10.9611 11.2254 10.6486C11.4113 10.336 11.626 10.0516 11.8697 9.79839C12.0235 9.63898 12.2671 9.61398 12.4627 9.72338L12.8986 9.96717C13.1166 10.0891 13.3858 10.0703 13.6038 9.94842C13.825 9.82652 13.9788 9.6046 13.9788 9.35768V8.82008H13.9756ZM16.9278 12.9928C16.9373 12.7898 16.9045 12.587 16.8314 12.3967C16.7583 12.2064 16.6463 12.0326 16.5024 11.8857C16.3584 11.7387 16.1854 11.6218 15.9938 11.5419C15.8022 11.462 15.596 11.4208 15.3876 11.4208C15.1792 11.4208 14.973 11.462 14.7814 11.5419C14.5898 11.6218 14.4168 11.7387 14.2728 11.8857C14.1288 12.0326 14.0169 12.2064 13.9438 12.3967C13.8707 12.587 13.8379 12.7898 13.8474 12.9928C13.8379 13.1958 13.8707 13.3985 13.9438 13.5888C14.0169 13.7791 14.1288 13.9529 14.2728 14.0999C14.4168 14.2468 14.5898 14.3637 14.7814 14.4436C14.973 14.5235 15.1792 14.5647 15.3876 14.5647C15.596 14.5647 15.8022 14.5235 15.9938 14.4436C16.1854 14.3637 16.3584 14.2468 16.5024 14.0999C16.6463 13.9529 16.7583 13.7791 16.8314 13.5888C16.9045 13.3985 16.9373 13.1958 16.9278 12.9928Z" fill="white"/>
</svg>
